<svg width="229" height="100" viewBox="0 0 229 100" fill="none" xmlns="http://www.w3.org/2000/svg">
<path d="M107.22 46.7V52.406H107.895V54.206H107.265V53H102.765V54.206H102.135V52.406H102.648C103.062 51.92 103.269 51.17 103.269 50.156V46.7H107.22ZM103.395 52.406H106.59V47.294H103.899V50.174C103.899 51.164 103.731 51.908 103.395 52.406ZM112.439 52.433C111.977 52.883 111.419 53.108 110.765 53.108C110.099 53.108 109.538 52.883 109.082 52.433C108.626 51.977 108.398 51.416 108.398 50.75C108.398 50.084 108.626 49.526 109.082 49.076C109.538 48.62 110.099 48.392 110.765 48.392C111.425 48.392 111.983 48.62 112.439 49.076C112.901 49.526 113.132 50.084 113.132 50.75C113.132 51.41 112.901 51.971 112.439 52.433ZM109.505 52.019C109.847 52.361 110.267 52.532 110.765 52.532C111.263 52.532 111.683 52.361 112.025 52.019C112.367 51.665 112.538 51.242 112.538 50.75C112.538 50.252 112.367 49.832 112.025 49.49C111.683 49.142 111.263 48.968 110.765 48.968C110.267 48.968 109.847 49.142 109.505 49.49C109.163 49.832 108.992 50.252 108.992 50.75C108.992 51.242 109.163 51.665 109.505 52.019ZM117.852 48.5H118.536V53H117.942V49.409L116.367 51.965H116.295L114.72 49.409V53H114.126V48.5H114.81L116.331 50.966L117.852 48.5ZM123.665 49.382V48.5H124.259V53H123.665V52.118C123.251 52.778 122.645 53.108 121.847 53.108C121.205 53.108 120.656 52.88 120.2 52.424C119.75 51.968 119.525 51.41 119.525 50.75C119.525 50.09 119.75 49.532 120.2 49.076C120.656 48.62 121.205 48.392 121.847 48.392C122.645 48.392 123.251 48.722 123.665 49.382ZM120.632 52.019C120.974 52.361 121.394 52.532 121.892 52.532C122.39 52.532 122.81 52.361 123.152 52.019C123.494 51.665 123.665 51.242 123.665 50.75C123.665 50.252 123.494 49.832 123.152 49.49C122.81 49.142 122.39 48.968 121.892 48.968C121.394 48.968 120.974 49.142 120.632 49.49C120.29 49.832 120.119 50.252 120.119 50.75C120.119 51.242 120.29 51.665 120.632 52.019ZM128.361 51.965L131.043 48.5H131.547V53H130.953V49.535L128.271 53H127.767V48.5H128.361V51.965ZM137.051 53.108C136.409 53.108 135.869 52.895 135.431 52.469C134.999 52.037 134.783 51.479 134.783 50.795C134.783 50.027 134.897 49.439 135.125 49.031C135.353 48.617 135.815 48.242 136.511 47.906C136.733 47.804 136.907 47.726 137.033 47.672C137.243 47.588 137.408 47.516 137.528 47.456C138.05 47.216 138.314 46.919 138.32 46.565L138.788 46.835C138.758 46.985 138.71 47.12 138.644 47.24C138.566 47.372 138.488 47.477 138.41 47.555C138.338 47.633 138.224 47.717 138.068 47.807C137.966 47.867 137.843 47.933 137.699 48.005L137.249 48.194L136.826 48.374C136.412 48.554 136.103 48.743 135.899 48.941C135.701 49.133 135.56 49.385 135.476 49.697C135.668 49.439 135.92 49.244 136.232 49.112C136.544 48.974 136.859 48.905 137.177 48.905C137.777 48.905 138.272 49.103 138.662 49.499C139.058 49.889 139.256 50.39 139.256 51.002C139.256 51.608 139.046 52.112 138.626 52.514C138.212 52.91 137.687 53.108 137.051 53.108ZM135.881 52.073C136.193 52.367 136.583 52.514 137.051 52.514C137.519 52.514 137.903 52.373 138.203 52.091C138.509 51.803 138.662 51.44 138.662 51.002C138.662 50.558 138.518 50.195 138.23 49.913C137.948 49.625 137.57 49.481 137.096 49.481C136.67 49.481 136.283 49.616 135.935 49.886C135.587 50.144 135.413 50.498 135.413 50.948C135.413 51.404 135.569 51.779 135.881 52.073ZM144.029 49.382V48.5H144.623V53H144.029V52.118C143.615 52.778 143.009 53.108 142.211 53.108C141.569 53.108 141.02 52.88 140.564 52.424C140.114 51.968 139.889 51.41 139.889 50.75C139.889 50.09 140.114 49.532 140.564 49.076C141.02 48.62 141.569 48.392 142.211 48.392C143.009 48.392 143.615 48.722 144.029 49.382ZM140.996 52.019C141.338 52.361 141.758 52.532 142.256 52.532C142.754 52.532 143.174 52.361 143.516 52.019C143.858 51.665 144.029 51.242 144.029 50.75C144.029 50.252 143.858 49.832 143.516 49.49C143.174 49.142 142.754 48.968 142.256 48.968C141.758 48.968 141.338 49.142 140.996 49.49C140.654 49.832 140.483 50.252 140.483 50.75C140.483 51.242 140.654 51.665 140.996 52.019ZM149.067 50.462V48.5H149.661V53H149.067V51.038H146.475V53H145.881V48.5H146.475V50.462H149.067ZM151.511 51.965L154.193 48.5H154.697V53H154.103V49.535L151.421 53H150.917V48.5H151.511V51.965ZM161.974 52.433C161.512 52.883 160.954 53.108 160.3 53.108C159.634 53.108 159.073 52.883 158.617 52.433C158.161 51.977 157.933 51.416 157.933 50.75C157.933 50.084 158.161 49.526 158.617 49.076C159.073 48.62 159.634 48.392 160.3 48.392C160.96 48.392 161.518 48.62 161.974 49.076C162.436 49.526 162.667 50.084 162.667 50.75C162.667 51.41 162.436 51.971 161.974 52.433ZM159.04 52.019C159.382 52.361 159.802 52.532 160.3 52.532C160.798 52.532 161.218 52.361 161.56 52.019C161.902 51.665 162.073 51.242 162.073 50.75C162.073 50.252 161.902 49.832 161.56 49.49C161.218 49.142 160.798 48.968 160.3 48.968C159.802 48.968 159.382 49.142 159.04 49.49C158.698 49.832 158.527 50.252 158.527 50.75C158.527 51.242 158.698 51.665 159.04 52.019ZM162.945 48.5H166.725V49.076H165.132V53H164.538V49.076H162.945V48.5ZM172.885 50.462V48.5H173.479V53H172.885V51.038H170.293V53H169.699V48.5H170.293V50.462H172.885ZM178.506 52.433C178.044 52.883 177.486 53.108 176.832 53.108C176.166 53.108 175.605 52.883 175.149 52.433C174.693 51.977 174.465 51.416 174.465 50.75C174.465 50.084 174.693 49.526 175.149 49.076C175.605 48.62 176.166 48.392 176.832 48.392C177.492 48.392 178.05 48.62 178.506 49.076C178.968 49.526 179.199 50.084 179.199 50.75C179.199 51.41 178.968 51.971 178.506 52.433ZM175.572 52.019C175.914 52.361 176.334 52.532 176.832 52.532C177.33 52.532 177.75 52.361 178.092 52.019C178.434 51.665 178.605 51.242 178.605 50.75C178.605 50.252 178.434 49.832 178.092 49.49C177.75 49.142 177.33 48.968 176.832 48.968C176.334 48.968 175.914 49.142 175.572 49.49C175.23 49.832 175.059 50.252 175.059 50.75C175.059 51.242 175.23 51.665 175.572 52.019ZM183.055 50.687C183.547 50.867 183.793 51.218 183.793 51.74C183.793 52.112 183.667 52.415 183.415 52.649C183.169 52.883 182.824 53 182.38 53H180.193V48.5H182.2C182.632 48.5 182.968 48.611 183.208 48.833C183.454 49.055 183.577 49.346 183.577 49.706C183.577 50.156 183.403 50.483 183.055 50.687ZM182.2 49.076H180.787V50.444H182.2C182.722 50.444 182.983 50.21 182.983 49.742C182.983 49.532 182.914 49.37 182.776 49.256C182.644 49.136 182.452 49.076 182.2 49.076ZM180.787 52.424H182.38C182.644 52.424 182.845 52.361 182.983 52.235C183.127 52.109 183.199 51.932 183.199 51.704C183.199 51.488 183.127 51.32 182.983 51.2C182.845 51.08 182.644 51.02 182.38 51.02H180.787V52.424ZM184.693 48.5H187.573V49.076H185.287V53H184.693V48.5ZM191.892 52.433C191.43 52.883 190.872 53.108 190.218 53.108C189.552 53.108 188.991 52.883 188.535 52.433C188.079 51.977 187.851 51.416 187.851 50.75C187.851 50.084 188.079 49.526 188.535 49.076C188.991 48.62 189.552 48.392 190.218 48.392C190.878 48.392 191.436 48.62 191.892 49.076C192.354 49.526 192.585 50.084 192.585 50.75C192.585 51.41 192.354 51.971 191.892 52.433ZM188.958 52.019C189.3 52.361 189.72 52.532 190.218 52.532C190.716 52.532 191.136 52.361 191.478 52.019C191.82 51.665 191.991 51.242 191.991 50.75C191.991 50.252 191.82 49.832 191.478 49.49C191.136 49.142 190.716 48.968 190.218 48.968C189.72 48.968 189.3 49.142 188.958 49.49C188.616 49.832 188.445 50.252 188.445 50.75C188.445 51.242 188.616 51.665 188.958 52.019ZM195.991 48.392C196.633 48.392 197.179 48.62 197.629 49.076C198.085 49.532 198.313 50.09 198.313 50.75C198.313 51.41 198.085 51.968 197.629 52.424C197.179 52.88 196.633 53.108 195.991 53.108C195.193 53.108 194.587 52.778 194.173 52.118V54.8H193.579V48.5H194.173V49.382C194.587 48.722 195.193 48.392 195.991 48.392ZM194.686 52.019C195.028 52.361 195.448 52.532 195.946 52.532C196.444 52.532 196.864 52.361 197.206 52.019C197.548 51.665 197.719 51.242 197.719 50.75C197.719 50.252 197.548 49.832 197.206 49.49C196.864 49.142 196.444 48.968 195.946 48.968C195.448 48.968 195.028 49.142 194.686 49.49C194.344 49.832 194.173 50.252 194.173 50.75C194.173 51.242 194.344 51.665 194.686 52.019ZM203.072 52.433C202.61 52.883 202.052 53.108 201.398 53.108C200.732 53.108 200.171 52.883 199.715 52.433C199.259 51.977 199.031 51.416 199.031 50.75C199.031 50.084 199.259 49.526 199.715 49.076C200.171 48.62 200.732 48.392 201.398 48.392C202.058 48.392 202.616 48.62 203.072 49.076C203.534 49.526 203.765 50.084 203.765 50.75C203.765 51.41 203.534 51.971 203.072 52.433ZM200.138 52.019C200.48 52.361 200.9 52.532 201.398 52.532C201.896 52.532 202.316 52.361 202.658 52.019C203 51.665 203.171 51.242 203.171 50.75C203.171 50.252 203 49.832 202.658 49.49C202.316 49.142 201.896 48.968 201.398 48.968C200.9 48.968 200.48 49.142 200.138 49.49C199.796 49.832 199.625 50.252 199.625 50.75C199.625 51.242 199.796 51.665 200.138 52.019ZM208.363 48.5V52.424H208.993V54.206H208.399V53H204.727V54.206H204.133V52.424H204.682C204.988 52.016 205.141 51.449 205.141 50.723V48.5H208.363ZM205.402 52.424H207.769V49.076H205.735V50.723C205.735 51.419 205.624 51.986 205.402 52.424ZM211.813 53.108C211.135 53.108 210.571 52.883 210.121 52.433C209.671 51.971 209.446 51.41 209.446 50.75C209.446 50.084 209.671 49.526 210.121 49.076C210.571 48.62 211.135 48.392 211.813 48.392C212.257 48.392 212.656 48.5 213.01 48.716C213.364 48.926 213.622 49.211 213.784 49.571L213.298 49.85C213.178 49.58 212.983 49.367 212.713 49.211C212.449 49.049 212.149 48.968 211.813 48.968C211.315 48.968 210.895 49.142 210.553 49.49C210.211 49.832 210.04 50.252 210.04 50.75C210.04 51.242 210.211 51.665 210.553 52.019C210.895 52.361 211.315 52.532 211.813 52.532C212.143 52.532 212.44 52.454 212.704 52.298C212.974 52.142 213.184 51.926 213.334 51.65L213.829 51.938C213.643 52.298 213.37 52.583 213.01 52.793C212.65 53.003 212.251 53.108 211.813 53.108ZM215.906 50.66L218.318 53H217.526L215.276 50.831V53H214.682V48.5H215.276V50.489L217.418 48.5H218.228L215.906 50.66ZM219.723 51.965L222.405 48.5H222.909V53H222.315V49.535L219.633 53H219.129V48.5H219.723V51.965ZM226.19 50.669L227.945 53H227.234L225.83 51.146L224.426 53H223.715L225.479 50.669L223.832 48.5H224.543L225.83 50.201L227.117 48.5H227.828L226.19 50.669ZM106.356 59.5H107.04V64H106.446V60.409L104.871 62.965H104.799L103.224 60.409V64H102.63V59.5H103.314L104.835 61.966L106.356 59.5ZM112.169 60.382V59.5H112.763V64H112.169V63.118C111.755 63.778 111.149 64.108 110.351 64.108C109.709 64.108 109.16 63.88 108.704 63.424C108.254 62.968 108.029 62.41 108.029 61.75C108.029 61.09 108.254 60.532 108.704 60.076C109.16 59.62 109.709 59.392 110.351 59.392C111.149 59.392 111.755 59.722 112.169 60.382ZM109.136 63.019C109.478 63.361 109.898 63.532 110.396 63.532C110.894 63.532 111.314 63.361 111.656 63.019C111.998 62.665 112.169 62.242 112.169 61.75C112.169 61.252 111.998 60.832 111.656 60.49C111.314 60.142 110.894 59.968 110.396 59.968C109.898 59.968 109.478 60.142 109.136 60.49C108.794 60.832 108.623 61.252 108.623 61.75C108.623 62.242 108.794 62.665 109.136 63.019ZM116.118 64.108C115.44 64.108 114.876 63.883 114.426 63.433C113.976 62.971 113.751 62.41 113.751 61.75C113.751 61.084 113.976 60.526 114.426 60.076C114.876 59.62 115.44 59.392 116.118 59.392C116.562 59.392 116.961 59.5 117.315 59.716C117.669 59.926 117.927 60.211 118.089 60.571L117.603 60.85C117.483 60.58 117.288 60.367 117.018 60.211C116.754 60.049 116.454 59.968 116.118 59.968C115.62 59.968 115.2 60.142 114.858 60.49C114.516 60.832 114.345 61.252 114.345 61.75C114.345 62.242 114.516 62.665 114.858 63.019C115.2 63.361 115.62 63.532 116.118 63.532C116.448 63.532 116.745 63.454 117.009 63.298C117.279 63.142 117.489 62.926 117.639 62.65L118.134 62.938C117.948 63.298 117.675 63.583 117.315 63.793C116.955 64.003 116.556 64.108 116.118 64.108ZM118.359 59.5H122.139V60.076H120.546V64H119.952V60.076H118.359V59.5ZM124.766 59.392C125.438 59.392 125.975 59.629 126.377 60.103C126.791 60.571 126.998 61.126 126.998 61.768C126.998 61.798 126.992 61.891 126.98 62.047H123.029C123.089 62.497 123.281 62.857 123.605 63.127C123.929 63.397 124.334 63.532 124.82 63.532C125.504 63.532 125.987 63.277 126.269 62.767L126.791 63.073C126.593 63.397 126.32 63.652 125.972 63.838C125.63 64.018 125.243 64.108 124.811 64.108C124.103 64.108 123.527 63.886 123.083 63.442C122.639 62.998 122.417 62.434 122.417 61.75C122.417 61.072 122.636 60.511 123.074 60.067C123.512 59.617 124.076 59.392 124.766 59.392ZM124.766 59.968C124.298 59.968 123.905 60.106 123.587 60.382C123.275 60.658 123.089 61.021 123.029 61.471H126.386C126.32 60.991 126.137 60.622 125.837 60.364C125.525 60.1 125.168 59.968 124.766 59.968ZM130.355 59.392C130.997 59.392 131.543 59.62 131.993 60.076C132.449 60.532 132.677 61.09 132.677 61.75C132.677 62.41 132.449 62.968 131.993 63.424C131.543 63.88 130.997 64.108 130.355 64.108C129.557 64.108 128.951 63.778 128.537 63.118V65.8H127.943V59.5H128.537V60.382C128.951 59.722 129.557 59.392 130.355 59.392ZM129.05 63.019C129.392 63.361 129.812 63.532 130.31 63.532C130.808 63.532 131.228 63.361 131.57 63.019C131.912 62.665 132.083 62.242 132.083 61.75C132.083 61.252 131.912 60.832 131.57 60.49C131.228 60.142 130.808 59.968 130.31 59.968C129.812 59.968 129.392 60.142 129.05 60.49C128.708 60.832 128.537 61.252 128.537 61.75C128.537 62.242 128.708 62.665 129.05 63.019ZM137.435 63.433C136.973 63.883 136.415 64.108 135.761 64.108C135.095 64.108 134.534 63.883 134.078 63.433C133.622 62.977 133.394 62.416 133.394 61.75C133.394 61.084 133.622 60.526 134.078 60.076C134.534 59.62 135.095 59.392 135.761 59.392C136.421 59.392 136.979 59.62 137.435 60.076C137.897 60.526 138.128 61.084 138.128 61.75C138.128 62.41 137.897 62.971 137.435 63.433ZM134.501 63.019C134.843 63.361 135.263 63.532 135.761 63.532C136.259 63.532 136.679 63.361 137.021 63.019C137.363 62.665 137.534 62.242 137.534 61.75C137.534 61.252 137.363 60.832 137.021 60.49C136.679 60.142 136.259 59.968 135.761 59.968C135.263 59.968 134.843 60.142 134.501 60.49C134.159 60.832 133.988 61.252 133.988 61.75C133.988 62.242 134.159 62.665 134.501 63.019ZM141.984 61.687C142.476 61.867 142.722 62.218 142.722 62.74C142.722 63.112 142.596 63.415 142.344 63.649C142.098 63.883 141.753 64 141.309 64H139.122V59.5H141.129C141.561 59.5 141.897 59.611 142.137 59.833C142.383 60.055 142.506 60.346 142.506 60.706C142.506 61.156 142.332 61.483 141.984 61.687ZM141.129 60.076H139.716V61.444H141.129C141.651 61.444 141.912 61.21 141.912 60.742C141.912 60.532 141.843 60.37 141.705 60.256C141.573 60.136 141.381 60.076 141.129 60.076ZM139.716 63.424H141.309C141.573 63.424 141.774 63.361 141.912 63.235C142.056 63.109 142.128 62.932 142.128 62.704C142.128 62.488 142.056 62.32 141.912 62.2C141.774 62.08 141.573 62.02 141.309 62.02H139.716V63.424Z" fill="#909195"/>
<path d="M102.598 35.6338C102.484 35.6338 102.427 35.5769 102.427 35.4631C102.427 35.4175 102.438 35.3264 102.461 35.1898C102.495 35.0532 102.535 34.9451 102.581 34.8654C103.002 34.8426 103.292 34.7288 103.452 34.5238C103.622 34.3075 103.708 33.966 103.708 33.4992V25.7293C103.708 25.365 103.685 25.1089 103.639 24.9609C103.594 24.8015 103.491 24.699 103.332 24.6535C103.184 24.6079 102.945 24.5738 102.615 24.551C102.615 24.403 102.626 24.2664 102.649 24.1412C102.672 24.0046 102.689 23.9078 102.7 23.8509C102.734 23.737 102.797 23.6801 102.888 23.6801H106.44C106.554 23.6801 106.611 23.737 106.611 23.8509C106.611 23.8964 106.594 23.9875 106.56 24.1241C106.537 24.2607 106.503 24.3689 106.457 24.4486C106.002 24.4599 105.706 24.5624 105.569 24.7559C105.432 24.9381 105.364 25.2625 105.364 25.7293V28.8714H111.443V25.7293C111.443 25.3764 111.421 25.1202 111.375 24.9609C111.33 24.8015 111.227 24.699 111.068 24.6535C110.92 24.6079 110.681 24.5738 110.351 24.551C110.351 24.403 110.362 24.2664 110.385 24.1412C110.407 24.0046 110.425 23.9078 110.436 23.8509C110.47 23.737 110.533 23.6801 110.624 23.6801H114.125C114.238 23.6801 114.295 23.737 114.295 23.8509C114.295 23.8964 114.278 23.9875 114.244 24.1241C114.221 24.2607 114.187 24.3689 114.142 24.4486C113.72 24.4599 113.441 24.5624 113.305 24.7559C113.168 24.9381 113.1 25.2625 113.1 25.7293V33.4992C113.1 34.0002 113.123 34.3246 113.168 34.4726C113.214 34.6206 113.322 34.706 113.493 34.7288C113.561 34.7401 113.669 34.7515 113.817 34.7629C113.965 34.7629 114.096 34.7629 114.21 34.7629C114.21 35.0703 114.187 35.3037 114.142 35.4631C114.107 35.5769 114.045 35.6338 113.954 35.6338H110.299C110.185 35.6338 110.129 35.5769 110.129 35.4631C110.129 35.4175 110.14 35.3264 110.163 35.1898C110.197 35.0532 110.237 34.9451 110.282 34.8654C110.703 34.8426 110.999 34.7288 111.17 34.5238C111.352 34.3075 111.443 33.966 111.443 33.4992V29.9814H105.364V33.4992C105.364 34.0002 105.387 34.3246 105.432 34.4726C105.478 34.6206 105.586 34.706 105.757 34.7288C105.848 34.7401 105.968 34.7515 106.116 34.7629C106.275 34.7629 106.412 34.7629 106.525 34.7629C106.525 35.0703 106.503 35.3037 106.457 35.4631C106.423 35.5769 106.36 35.6338 106.269 35.6338H102.598Z" fill="#E5E5E6"/>
<path d="M121.382 35.89C120.551 35.89 119.777 35.7477 119.06 35.4631C118.354 35.1671 117.733 34.7515 117.198 34.2165C116.663 33.6814 116.242 33.0495 115.935 32.3209C115.639 31.5923 115.491 30.7954 115.491 29.9302C115.491 28.9853 115.656 28.1201 115.986 27.3345C116.327 26.5376 116.794 25.8488 117.386 25.2682C117.99 24.6762 118.69 24.2209 119.487 23.9021C120.284 23.5833 121.137 23.424 122.048 23.424C122.913 23.424 123.705 23.5776 124.422 23.885C125.15 24.181 125.777 24.5966 126.3 25.1316C126.824 25.6667 127.228 26.2985 127.513 27.0271C127.809 27.7444 127.957 28.5299 127.957 29.3837C127.957 30.3173 127.792 31.1825 127.461 31.9794C127.143 32.7763 126.687 33.4651 126.095 34.0457C125.515 34.6263 124.82 35.0817 124.012 35.4118C123.215 35.7306 122.338 35.89 121.382 35.89ZM121.826 34.8483C122.703 34.8483 123.471 34.6377 124.131 34.2165C124.792 33.7952 125.304 33.2089 125.668 32.4576C126.033 31.7062 126.215 30.841 126.215 29.8619C126.215 28.8031 126.021 27.8696 125.634 27.0613C125.259 26.253 124.723 25.6212 124.029 25.1658C123.335 24.699 122.521 24.4656 121.587 24.4656C120.767 24.4656 120.027 24.6819 119.367 25.1145C118.718 25.5358 118.2 26.1221 117.813 26.8735C117.426 27.6248 117.232 28.4844 117.232 29.452C117.232 30.5222 117.432 31.4614 117.83 32.2697C118.24 33.078 118.792 33.7098 119.487 34.1652C120.181 34.6206 120.961 34.8483 121.826 34.8483Z" fill="#E5E5E6"/>
<path d="M128.974 24.551C128.974 24.403 128.985 24.2664 129.008 24.1412C129.031 24.0046 129.048 23.9078 129.059 23.8509C129.093 23.737 129.156 23.6801 129.247 23.6801H132.885C132.998 23.6801 133.055 23.737 133.055 23.8509C133.055 23.8964 133.038 23.9875 133.004 24.1241C132.981 24.2607 132.947 24.3689 132.902 24.4486C132.446 24.4599 132.133 24.5624 131.962 24.7559C131.803 24.9381 131.723 25.2625 131.723 25.7293V31.3646C131.723 32.4689 131.997 33.3285 132.543 33.9432C133.101 34.558 133.864 34.8654 134.831 34.8654C135.947 34.8654 136.795 34.558 137.376 33.9432C137.968 33.3171 138.264 32.4576 138.264 31.3646V25.7293C138.264 25.365 138.23 25.1032 138.161 24.9438C138.104 24.7844 137.979 24.6819 137.786 24.6364C137.603 24.5909 137.324 24.5624 136.949 24.551C136.949 24.403 136.96 24.2664 136.983 24.1412C137.006 24.0046 137.023 23.9078 137.034 23.8509C137.068 23.737 137.131 23.6801 137.222 23.6801H140.415C140.529 23.6801 140.586 23.737 140.586 23.8509C140.586 23.8964 140.569 23.9875 140.535 24.1241C140.512 24.2607 140.478 24.3689 140.432 24.4486C140.011 24.4599 139.715 24.5624 139.544 24.7559C139.385 24.9381 139.305 25.2682 139.305 25.7464V31.3646C139.305 32.2526 139.129 33.0382 138.776 33.7212C138.423 34.4043 137.899 34.9394 137.205 35.3264C136.511 35.7021 135.657 35.89 134.643 35.89C133.198 35.89 132.071 35.5257 131.262 34.7971C130.465 34.0571 130.067 32.9129 130.067 31.3646V25.7293C130.067 25.3536 130.044 25.0861 129.999 24.9267C129.953 24.7673 129.851 24.6706 129.691 24.6364C129.543 24.5909 129.304 24.5624 128.974 24.551Z" fill="#E5E5E6"/>
<path d="M145.515 35.89C144.991 35.89 144.467 35.8217 143.944 35.6851C143.42 35.5484 142.953 35.3777 142.543 35.1728C142.133 34.9678 141.837 34.7572 141.655 34.5409L141.519 31.8086C141.61 31.7859 141.729 31.7688 141.877 31.7574C142.025 31.7346 142.133 31.7233 142.202 31.7233C142.304 31.7233 142.373 31.746 142.407 31.7916C142.452 31.8371 142.481 31.8997 142.492 31.9794L142.851 33.6188C143.204 33.9945 143.631 34.3018 144.131 34.5409C144.644 34.78 145.162 34.8995 145.685 34.8995C146.425 34.8995 147.006 34.7003 147.427 34.3018C147.848 33.9034 148.059 33.3626 148.059 32.6796C148.059 32.0876 147.905 31.6151 147.598 31.2622C147.291 30.8979 146.904 30.6019 146.437 30.3742C145.97 30.1465 145.486 29.9416 144.985 29.7594C143.847 29.3382 143.039 28.8714 142.56 28.3591C142.082 27.8468 141.849 27.2264 141.86 26.4978C141.872 25.8033 142.065 25.2284 142.441 24.773C142.817 24.3176 143.306 23.9818 143.909 23.7655C144.513 23.5378 145.156 23.424 145.839 23.424C146.738 23.424 147.587 23.6232 148.384 24.0216L148.879 24.0558C148.993 24.0672 149.061 24.1355 149.084 24.2607L149.152 26.7027C149.061 26.7255 148.953 26.7482 148.828 26.771C148.714 26.7824 148.628 26.7881 148.571 26.7881C148.446 26.7881 148.366 26.7198 148.332 26.5831L147.974 25.4219C147.803 25.0918 147.53 24.8186 147.154 24.6022C146.778 24.3859 146.306 24.2778 145.737 24.2778C145.35 24.2778 144.974 24.3404 144.61 24.4656C144.257 24.5795 143.966 24.7616 143.739 25.0121C143.522 25.2625 143.409 25.5984 143.397 26.0196C143.397 26.475 143.511 26.8564 143.739 27.1638C143.966 27.4711 144.268 27.7273 144.644 27.9322C145.019 28.1371 145.412 28.3193 145.822 28.4787C146.277 28.6494 146.733 28.8487 147.188 29.0764C147.644 29.2927 148.059 29.5488 148.435 29.8448C148.822 30.1408 149.129 30.4937 149.357 30.9036C149.596 31.302 149.716 31.7745 149.716 32.3209C149.716 33.0495 149.528 33.6814 149.152 34.2165C148.788 34.7515 148.287 35.1671 147.649 35.4631C147.012 35.7477 146.3 35.89 145.515 35.89Z" fill="#E5E5E6"/>
<path d="M158.85 35.6509L150.91 35.6338C150.796 35.6338 150.739 35.5769 150.739 35.4631C150.739 35.4175 150.75 35.3264 150.773 35.1898C150.807 35.0532 150.847 34.9451 150.893 34.8654C151.314 34.8312 151.604 34.7117 151.763 34.5068C151.934 34.3018 152.02 33.966 152.02 33.4992V25.7293C152.02 25.3422 151.997 25.069 151.951 24.9096C151.906 24.7502 151.803 24.6535 151.644 24.6193C151.496 24.5738 151.257 24.551 150.927 24.551C150.927 24.403 150.938 24.2664 150.961 24.1412C150.984 24.0046 151.001 23.9078 151.012 23.8509C151.046 23.737 151.109 23.6801 151.2 23.6801H158.628C158.754 23.6801 158.839 23.7086 158.884 23.7655C158.93 23.811 158.958 23.8964 158.97 24.0216L159.106 26.1392C159.038 26.1733 158.936 26.2018 158.799 26.2245C158.662 26.2473 158.566 26.2587 158.509 26.2587C158.361 26.2587 158.275 26.1961 158.253 26.0708L158.116 25.3536C158.07 25.0804 158.002 24.9039 157.911 24.8242C157.82 24.7446 157.638 24.7047 157.365 24.7047L154.701 24.6706C154.37 24.6592 154.131 24.6819 153.983 24.7389C153.847 24.7844 153.761 24.8869 153.727 25.0462C153.693 25.1942 153.676 25.4276 153.676 25.7464V28.7861H155.947C156.414 28.7861 156.716 28.7291 156.852 28.6153C157 28.5014 157.08 28.2794 157.091 27.9493C157.171 27.9038 157.274 27.8753 157.399 27.8639C157.535 27.8411 157.626 27.8298 157.672 27.8298C157.786 27.8298 157.843 27.8867 157.843 28.0005L157.774 30.8523C157.774 30.9434 157.718 31.006 157.604 31.0402C157.547 31.0516 157.456 31.0686 157.33 31.0914C157.205 31.1142 157.08 31.1256 156.955 31.1256C156.955 30.7271 156.932 30.4311 156.886 30.2376C156.852 30.044 156.761 29.9188 156.613 29.8619C156.477 29.7936 156.255 29.7594 155.947 29.7594H153.676V33.4822C153.676 33.9945 153.744 34.3246 153.881 34.4726C154.018 34.6092 154.228 34.6718 154.513 34.6605L157.467 34.5921C157.797 34.5808 158.048 34.5295 158.218 34.4385C158.401 34.3474 158.532 34.1766 158.611 33.9262L158.884 33.1406C158.941 33.0154 159.027 32.9528 159.141 32.9528C159.198 32.9528 159.289 32.9699 159.414 33.004C159.539 33.0382 159.636 33.0723 159.704 33.1065L159.328 35.2411C159.271 35.5143 159.112 35.6509 158.85 35.6509Z" fill="#E5E5E6"/>
<path d="M176.113 35.89L173.739 28.5299L171.502 35.4289C171.411 35.7363 171.24 35.89 170.99 35.89H170.375L167.182 26.2075C166.886 25.2853 166.544 24.7673 166.157 24.6535C166.055 24.6193 165.947 24.5966 165.833 24.5852C165.73 24.5738 165.594 24.5624 165.423 24.551C165.423 24.2436 165.446 24.0103 165.491 23.8509C165.525 23.737 165.588 23.6801 165.679 23.6801H169.368C169.481 23.6801 169.538 23.737 169.538 23.8509C169.538 23.8964 169.521 23.9875 169.487 24.1241C169.464 24.2607 169.43 24.3689 169.385 24.4486C169.089 24.4599 168.878 24.5112 168.753 24.6022C168.639 24.6819 168.582 24.8129 168.582 24.995C168.582 25.1089 168.605 25.2512 168.65 25.4219C168.696 25.5813 168.753 25.7692 168.821 25.9855L171.109 33.0723C171.132 33.1179 171.166 33.1406 171.212 33.1406C171.257 33.1406 171.286 33.1179 171.297 33.0723L173.261 27.0784L172.988 26.2075C172.84 25.7407 172.68 25.3821 172.51 25.1316C172.339 24.8812 172.157 24.7218 171.963 24.6535C171.861 24.6193 171.753 24.5966 171.639 24.5852C171.536 24.5738 171.4 24.5624 171.229 24.551C171.229 24.2436 171.252 24.0103 171.297 23.8509C171.331 23.737 171.394 23.6801 171.485 23.6801H175.174C175.242 23.6801 175.27 23.7143 175.259 23.7826C175.259 23.8167 175.259 23.8395 175.259 23.8509C175.259 23.8623 175.259 23.8736 175.259 23.885C175.259 23.9533 175.253 24.0501 175.242 24.1753C175.242 24.2892 175.225 24.3802 175.191 24.4486C174.895 24.4599 174.69 24.5112 174.576 24.6022C174.462 24.6819 174.405 24.8072 174.405 24.9779C174.405 25.0918 174.422 25.2341 174.456 25.4049C174.502 25.5756 174.559 25.7692 174.627 25.9855L176.847 33.0723C176.87 33.1179 176.904 33.1406 176.95 33.1406C176.995 33.1406 177.024 33.1179 177.035 33.0723L179.101 25.8488C179.158 25.6667 179.198 25.513 179.221 25.3878C179.255 25.2512 179.272 25.1373 179.272 25.0462C179.272 24.8527 179.204 24.7275 179.067 24.6706C178.931 24.6022 178.697 24.5624 178.367 24.551C178.367 24.403 178.378 24.2664 178.401 24.1412C178.435 24.0046 178.458 23.9078 178.469 23.8509C178.504 23.737 178.566 23.6801 178.657 23.6801H181.56C181.674 23.6801 181.731 23.737 181.731 23.8509C181.731 23.8964 181.714 23.9875 181.68 24.1241C181.657 24.2607 181.623 24.3689 181.577 24.4486C181.213 24.4941 180.934 24.5966 180.741 24.7559C180.547 24.9153 180.371 25.2625 180.211 25.7976L177.24 35.4289C177.149 35.7363 176.978 35.89 176.728 35.89H176.113Z" fill="#E5E5E6"/>
<path d="M187.871 35.89C187.04 35.89 186.266 35.7477 185.549 35.4631C184.843 35.1671 184.223 34.7515 183.688 34.2165C183.153 33.6814 182.731 33.0495 182.424 32.3209C182.128 31.5923 181.98 30.7954 181.98 29.9302C181.98 28.9853 182.145 28.1201 182.475 27.3345C182.817 26.5376 183.283 25.8488 183.875 25.2682C184.479 24.6762 185.179 24.2209 185.976 23.9021C186.773 23.5833 187.627 23.424 188.537 23.424C189.403 23.424 190.194 23.5776 190.911 23.885C191.64 24.181 192.266 24.5966 192.79 25.1316C193.313 25.6667 193.717 26.2985 194.002 27.0271C194.298 27.7444 194.446 28.5299 194.446 29.3837C194.446 30.3173 194.281 31.1825 193.951 31.9794C193.632 32.7763 193.177 33.4651 192.585 34.0457C192.004 34.6263 191.31 35.0817 190.501 35.4118C189.704 35.7306 188.828 35.89 187.871 35.89ZM188.315 34.8483C189.192 34.8483 189.96 34.6377 190.621 34.2165C191.281 33.7952 191.793 33.2089 192.158 32.4576C192.522 31.7062 192.704 30.841 192.704 29.8619C192.704 28.8031 192.511 27.8696 192.124 27.0613C191.748 26.253 191.213 25.6212 190.518 25.1658C189.824 24.699 189.01 24.4656 188.076 24.4656C187.257 24.4656 186.517 24.6819 185.856 25.1145C185.207 25.5358 184.689 26.1221 184.302 26.8735C183.915 27.6248 183.722 28.4844 183.722 29.452C183.722 30.5222 183.921 31.4614 184.319 32.2697C184.729 33.078 185.281 33.7098 185.976 34.1652C186.67 34.6206 187.45 34.8483 188.315 34.8483Z" fill="#E5E5E6"/>
<path d="M195.719 35.6338C195.606 35.6338 195.549 35.5769 195.549 35.4631C195.549 35.4175 195.56 35.3264 195.583 35.1898C195.617 35.0532 195.657 34.9451 195.702 34.8654C196.124 34.8426 196.414 34.7288 196.573 34.5238C196.744 34.3075 196.829 33.966 196.829 33.4992V25.7293C196.829 25.3422 196.807 25.069 196.761 24.9096C196.716 24.7502 196.613 24.6535 196.454 24.6193C196.306 24.5738 196.067 24.551 195.736 24.551C195.736 24.403 195.748 24.2664 195.771 24.1412C195.793 24.0046 195.81 23.9078 195.822 23.8509C195.856 23.737 195.919 23.6801 196.01 23.6801H200.142C201.497 23.6801 202.55 23.9476 203.301 24.4827C204.053 25.0064 204.429 25.7578 204.429 26.7368C204.429 27.5565 204.178 28.251 203.677 28.8202C203.188 29.3894 202.55 29.8277 201.765 30.1351C202.413 31.1256 202.949 31.9282 203.37 32.5429C203.791 33.1577 204.15 33.6302 204.446 33.9603C204.742 34.2791 205.009 34.4954 205.248 34.6092C205.499 34.7231 205.766 34.78 206.051 34.78C206.074 34.9166 206.062 35.076 206.017 35.2581C205.983 35.4289 205.937 35.5541 205.88 35.6338C205.482 35.7932 205.072 35.8729 204.651 35.8729C204.286 35.8729 203.973 35.7818 203.711 35.5997C203.449 35.4175 203.131 35.0532 202.755 34.5068L200.245 30.5108C199.835 30.5677 199.419 30.5962 198.998 30.5962C198.827 30.5962 198.657 30.5905 198.486 30.5791V33.4992C198.486 34.0002 198.509 34.3246 198.554 34.4726C198.6 34.6206 198.708 34.706 198.879 34.7288C198.97 34.7401 199.089 34.7515 199.237 34.7629C199.397 34.7629 199.533 34.7629 199.647 34.7629C199.647 35.0703 199.624 35.3037 199.579 35.4631C199.545 35.5769 199.482 35.6338 199.391 35.6338H195.719ZM198.486 29.5033C198.907 29.583 199.311 29.6228 199.698 29.6228C200.746 29.6228 201.508 29.3951 201.987 28.9397C202.476 28.4844 202.721 27.807 202.721 26.9076C202.721 26.1448 202.482 25.5642 202.004 25.1658C201.525 24.7559 200.842 24.551 199.954 24.551C199.556 24.551 199.214 24.5795 198.93 24.6364C198.748 24.6819 198.628 24.7958 198.571 24.9779C198.514 25.1601 198.486 25.4105 198.486 25.7293V29.5033Z" fill="#E5E5E6"/>
<path d="M214.532 35.6509L206.643 35.6338C206.529 35.6338 206.472 35.5769 206.472 35.4631C206.472 35.4175 206.483 35.3264 206.506 35.1898C206.54 35.0532 206.58 34.9451 206.625 34.8654C207.047 34.8312 207.337 34.7117 207.496 34.5068C207.667 34.3018 207.752 33.966 207.752 33.4992V25.7293C207.752 25.3422 207.73 25.069 207.684 24.9096C207.639 24.7502 207.536 24.6535 207.377 24.6193C207.229 24.5738 206.99 24.551 206.66 24.551C206.66 24.403 206.671 24.2664 206.694 24.1412C206.717 24.0046 206.734 23.9078 206.745 23.8509C206.779 23.737 206.842 23.6801 206.933 23.6801H210.656C210.769 23.6801 210.826 23.737 210.826 23.8509C210.826 23.8964 210.809 23.9875 210.775 24.1241C210.752 24.2607 210.718 24.3689 210.673 24.4486C210.172 24.4599 209.836 24.5624 209.665 24.7559C209.494 24.9381 209.409 25.2625 209.409 25.7293V33.4992C209.409 34.0115 209.477 34.3303 209.614 34.4555C209.75 34.5808 209.961 34.6377 210.246 34.6263L213.132 34.558C213.462 34.5466 213.707 34.4726 213.866 34.336C214.037 34.1994 214.173 34.0058 214.276 33.7554L214.617 32.9015C214.674 32.7763 214.76 32.7137 214.874 32.7137C214.93 32.7137 215.022 32.7308 215.147 32.7649C215.272 32.7877 215.369 32.8162 215.437 32.8503L215.01 35.2411C214.953 35.5143 214.794 35.6509 214.532 35.6509Z" fill="#E5E5E6"/>
<path d="M216.211 35.4801C216.211 35.4232 216.222 35.3264 216.245 35.1898C216.279 35.0532 216.319 34.9451 216.365 34.8654C216.786 34.8426 217.076 34.7288 217.235 34.5238C217.406 34.3075 217.492 33.966 217.492 33.4992V25.7293C217.492 25.3536 217.469 25.0861 217.423 24.9267C217.378 24.7559 217.275 24.6535 217.116 24.6193C216.968 24.5738 216.729 24.551 216.399 24.551C216.399 24.403 216.41 24.2664 216.433 24.1412C216.456 24.0046 216.473 23.9078 216.484 23.8509C216.507 23.7598 216.541 23.7086 216.587 23.6972C216.632 23.6858 216.661 23.6801 216.672 23.6801H220.634C222.831 23.6801 224.522 24.1583 225.706 25.1145C226.889 26.0595 227.481 27.4768 227.481 29.3667C227.481 30.6303 227.185 31.7403 226.593 32.6966C226.002 33.6529 225.136 34.3929 223.998 34.9166C222.859 35.4289 221.47 35.668 219.831 35.6338H216.382C216.268 35.6338 216.211 35.5826 216.211 35.4801ZM219.148 33.4992C219.148 33.7725 219.165 33.9945 219.199 34.1652C219.245 34.336 219.359 34.4612 219.541 34.5409C219.723 34.6092 220.036 34.6434 220.48 34.6434C221.539 34.6434 222.467 34.4498 223.264 34.0628C224.06 33.6757 224.675 33.0894 225.108 32.3039C225.552 31.5183 225.774 30.5336 225.774 29.3496C225.774 28.1884 225.563 27.2662 225.142 26.5831C224.721 25.9001 224.134 25.4105 223.383 25.1145C222.643 24.8186 221.778 24.6706 220.787 24.6706H220.087C219.757 24.6706 219.518 24.7502 219.37 24.9096C219.222 25.069 219.148 25.3422 219.148 25.7293V33.4992Z" fill="#E5E5E6"/>
<path d="M92 58.7191L58.8079 26.708C57.241 25.1968 54.759 25.1968 53.1921 26.708L20 58.7191" stroke="white" stroke-width="2.02247" stroke-linecap="round" stroke-linejoin="round"/>
<path d="M79.7303 32.0223V46.0448" stroke="white" stroke-width="2.02247" stroke-linecap="round" stroke-linejoin="round"/>
<rect x="49.9326" y="42.4044" width="5.1236" height="5.1236" rx="0.674157" fill="white"/>
<rect x="49.9326" y="48.8763" width="5.1236" height="5.1236" rx="0.674157" fill="white"/>
<rect x="56.5393" y="42.4044" width="5.1236" height="5.1236" rx="0.674157" fill="white"/>
<rect x="56.5393" y="48.8763" width="5.1236" height="5.1236" rx="0.674157" fill="white"/>
</svg>
